name rise43.5482peak65.4966fall89.1036.mot
datacolumns 19
datarows 23
range 20.87492200000000 20.91158700000000
endheader
time	ground_force1_vx	ground_force1_vy	ground_force1_vz	ground_force1_px	ground_force1_py	ground_force1_pz	ground_force2_vx	ground_force2_vy	ground_force2_vz	ground_force2_px	ground_force2_py	ground_force2_pz	ground_torque1_x	ground_torque1_y	ground_torque1_z	ground_torque2_x	ground_torque2_y	ground_torque2_z	
20.87492200000000	-46.12692100000000	818.38636199999996	56.00062500000000	0.11858400000000	0.00000000000000	0.12685400000000	-5.43786600000000	46.44259900000000	7.96010500000000	0.30408300000000	0.00000000000000	-0.08387800000000	0.00000000000000	23.28881600000000	0.00000000000000	0.00000000000000	4.34135700000000	0.00000000000000	
20.87658200000000	-46.92361800000000	818.05653500000005	56.12620800000000	0.11778200000000	0.00000000000000	0.12677600000000	-5.94824400000000	53.06680800000000	8.80871500000000	0.31129200000000	0.00000000000000	-0.08401200000000	0.00000000000000	23.36833700000000	0.00000000000000	0.00000000000000	4.89214500000000	0.00000000000000	
20.87825000000000	-47.73456300000000	817.58595100000002	56.23202400000000	0.11700300000000	0.00000000000000	0.12669500000000	-6.37916500000000	59.61114300000000	9.56957200000000	0.31796100000000	0.00000000000000	-0.08413900000000	0.00000000000000	23.44904600000000	0.00000000000000	0.00000000000000	5.40723900000000	0.00000000000000	
20.87991200000000	-48.55975700000000	816.97039900000004	56.31714700000000	0.11624700000000	0.00000000000000	0.12661100000000	-6.72119900000000	66.00593200000000	10.22998300000000	0.32415000000000	0.00000000000000	-0.08426100000000	0.00000000000000	23.53089000000000	0.00000000000000	0.00000000000000	5.87712000000000	0.00000000000000	
20.88158400000000	-49.39914700000000	816.20575699999995	56.38067800000000	0.11551300000000	0.00000000000000	0.12652200000000	-6.96945800000000	72.20686700000000	10.78330600000000	0.32990500000000	0.00000000000000	-0.08438100000000	0.00000000000000	23.61380000000000	0.00000000000000	0.00000000000000	6.29557600000000	0.00000000000000	
20.88324700000000	-50.25262200000000	815.28799300000003	56.42174500000000	0.11480000000000	0.00000000000000	0.12643100000000	-7.12328100000000	78.19455100000000	11.22856200000000	0.33526800000000	0.00000000000000	-0.08450100000000	0.00000000000000	23.69768700000000	0.00000000000000	0.00000000000000	6.65967200000000	0.00000000000000	
20.88493000000000	-51.12001200000000	814.21317399999998	56.43950800000000	0.11410700000000	0.00000000000000	0.12633600000000	-7.18562600000000	83.97206400000000	11.56963900000000	0.34027200000000	0.00000000000000	-0.08462100000000	0.00000000000000	23.78244700000000	0.00000000000000	0.00000000000000	6.96943400000000	0.00000000000000	
20.88658600000000	-52.00108000000000	812.97747100000004	56.43316000000000	0.11343300000000	0.00000000000000	0.12623700000000	-7.16227800000000	89.56111199999999	11.81423800000000	0.34494500000000	0.00000000000000	-0.08474300000000	0.00000000000000	23.86795400000000	0.00000000000000	0.00000000000000	7.22735700000000	0.00000000000000	
20.88825000000000	-52.89552200000000	811.57716500000004	56.40193300000000	0.11277700000000	0.00000000000000	0.12613500000000	-7.06096400000000	94.99732800000000	11.97268800000000	0.34931200000000	0.00000000000000	-0.08486700000000	0.00000000000000	23.95406400000000	0.00000000000000	0.00000000000000	7.43777500000000	0.00000000000000	
20.88992400000000	-53.80296200000000	810.00865699999997	56.34509700000000	0.11213800000000	0.00000000000000	0.12603000000000	-6.89046400000000	100.32523800000000	12.05675000000000	0.35339300000000	0.00000000000000	-0.08499500000000	0.00000000000000	24.04061700000000	0.00000000000000	0.00000000000000	7.60619600000000	0.00000000000000	
20.89158000000000	-54.72294900000000	808.26846599999999	56.26196400000000	0.11151400000000	0.00000000000000	0.12592200000000	-6.65980200000000	105.59339100000000	12.07851200000000	0.35720600000000	0.00000000000000	-0.08512700000000	0.00000000000000	24.12743000000000	0.00000000000000	0.00000000000000	7.73864800000000	0.00000000000000	
20.89324700000000	-55.65495400000000	806.35324400000002	56.15189400000000	0.11090400000000	0.00000000000000	0.12581000000000	-6.37754900000000	110.84999200000000	12.04944600000000	0.36076800000000	0.00000000000000	-0.08526300000000	0.00000000000000	24.21430300000000	0.00000000000000	0.00000000000000	7.84109900000000	0.00000000000000	
20.89491700000000	-56.59836500000000	804.25977699999999	56.01429200000000	0.11030600000000	0.00000000000000	0.12569500000000	-6.05129100000000	116.13930100000000	11.97967100000000	0.36409200000000	0.00000000000000	-0.08540500000000	0.00000000000000	24.30101900000000	0.00000000000000	0.00000000000000	7.91897200000000	0.00000000000000	
20.89657900000000	-57.55248700000000	801.98499300000003	55.84861500000000	0.10971900000000	0.00000000000000	0.12557700000000	-5.68726700000000	121.49894600000000	11.87745500000000	0.36719100000000	0.00000000000000	-0.08555200000000	0.00000000000000	24.38734100000000	0.00000000000000	0.00000000000000	7.97680000000000	0.00000000000000	
20.89824500000000	-58.51653900000000	799.52596700000004	55.65437200000000	0.10914100000000	0.00000000000000	0.12545600000000	-5.29017100000000	126.95819000000000	11.74893000000000	0.37007500000000	0.00000000000000	-0.08570500000000	0.00000000000000	24.47301500000000	0.00000000000000	0.00000000000000	8.01800400000000	0.00000000000000	
20.89992500000000	-59.48964900000000	796.87992499999996	55.43112500000000	0.10857000000000	0.00000000000000	0.12533200000000	-4.86311600000000	132.53711400000000	11.59803200000000	0.37275500000000	0.00000000000000	-0.08586300000000	0.00000000000000	24.55777200000000	0.00000000000000	0.00000000000000	8.04479900000000	0.00000000000000	
20.90158400000000	-60.47085700000000	794.04425500000002	55.17849500000000	0.10800500000000	0.00000000000000	0.12520500000000	-4.40771500000000	138.24661000000000	11.42660500000000	0.37523900000000	0.00000000000000	-0.08602800000000	0.00000000000000	24.64132400000000	0.00000000000000	0.00000000000000	8.05821200000000	0.00000000000000	
20.90324800000000	-61.45911000000000	791.01650700000005	54.89616000000000	0.10744300000000	0.00000000000000	0.12507600000000	-3.92427400000000	144.08904200000001	11.23464400000000	0.37753600000000	0.00000000000000	-0.08619800000000	0.00000000000000	24.72336900000000	0.00000000000000	0.00000000000000	8.05819800000000	0.00000000000000	
20.90492600000000	-62.45325900000000	787.79440199999999	54.58386100000000	0.10688300000000	0.00000000000000	0.12494400000000	-3.41203800000000	150.05939900000001	11.02063800000000	0.37965400000000	0.00000000000000	-0.08637500000000	0.00000000000000	24.80359000000000	0.00000000000000	0.00000000000000	8.04381100000000	0.00000000000000	
20.90658200000000	-63.45206200000000	784.37583400000005	54.24139600000000	0.10632300000000	0.00000000000000	0.12481000000000	-2.86948800000000	156.14675800000001	10.78195300000000	0.38160000000000	0.00000000000000	-0.08655800000000	0.00000000000000	24.88165800000000	0.00000000000000	0.00000000000000	8.01342000000000	0.00000000000000	
20.90825100000000	-64.45418400000000	780.75887799999998	53.86863200000000	0.10576100000000	0.00000000000000	0.12467300000000	-2.29462900000000	162.33590899999999	10.51523900000000	0.38337900000000	0.00000000000000	-0.08674800000000	0.00000000000000	24.95722800000000	0.00000000000000	0.00000000000000	7.96494900000000	0.00000000000000	
20.90991300000000	-65.45819200000000	776.94179499999996	53.46549600000000	0.10519500000000	0.00000000000000	0.12453400000000	-1.68527700000000	168.60896500000001	10.21681000000000	0.38499900000000	0.00000000000000	-0.08694400000000	0.00000000000000	25.02994700000000	0.00000000000000	0.00000000000000	7.89610100000000	0.00000000000000	
20.91158700000000	-66.46256099999999	772.92303400000003	53.03198400000000	0.10462400000000	0.00000000000000	0.12439300000000	-1.03930200000000	174.94687300000001	9.88298400000000	0.38646500000000	0.00000000000000	-0.08714500000000	0.00000000000000	25.09945000000000	0.00000000000000	0.00000000000000	7.80456600000000	0.00000000000000	
